<svg width="223" height="61" viewBox="0 0 223 61" fill="none" xmlns="http://www.w3.org/2000/svg">
<path d="M102.64 25.53C100.111 9.25928 85.4364 -1.72897 69.1124 0.30071C53.6182 2.22707 41.2835 15.7849 43.3265 33.9187C43.4831 35.3118 43.7664 36.7316 44.533 38.1813C45.5828 37.1115 46.3027 36.0683 47.0192 35.0152C50.8153 29.4227 54.2314 23.5637 58.4274 18.2545C63.0367 12.4254 69.249 10.2091 76.4679 11.6022C85.893 13.4253 91.7054 20.8574 91.6188 30.4526C91.4955 43.8538 78.7475 50.6027 68.8291 48.4664C65.6429 47.7798 62.97 46.1767 60.4671 44.227C59.5239 43.4905 59.0073 43.4238 58.3008 44.527C56.8976 46.72 55.4079 48.863 53.8215 50.926C53.0183 51.9725 53.2116 52.5457 54.1548 53.3123C60.847 58.7481 68.4891 60.8177 76.9811 59.7279C93.6151 57.5916 105.213 42.094 102.64 25.53Z" fill="white"/>
<path d="M58.484 21.6373C58.0541 22.1706 57.7908 22.4505 57.5809 22.7638C53.3982 28.9095 49.3355 35.1352 45.0162 41.1809C40.5169 47.4765 34.1946 49.9461 26.6591 48.4797C15.6709 46.3434 9.58517 37.0482 11.6115 26.0366C13.4679 15.9516 24.2762 9.06933 34.2146 11.5856C37.4107 12.3955 40.1103 14.1019 42.7166 15.9982C43.5298 16.5915 43.953 16.5281 44.5129 15.6516C45.8827 13.502 47.3025 11.3723 48.8422 9.34262C49.6688 8.25279 49.5455 7.61622 48.5423 6.76303C41.9633 1.18725 34.3479 -0.895751 25.9192 0.347384C9.01193 2.84032 -1.91633 17.5013 0.279991 34.4886C2.00638 47.8331 13.8145 58.9514 27.349 59.9679C40.7735 60.9777 53.0682 53.3189 57.9841 40.7643C60.4071 34.5786 60.6904 28.2696 58.4874 21.6373H58.484Z" fill="white"/>
<path d="M73.2917 35.0218C76.0912 35.0085 78.2375 32.8755 78.2609 30.0793C78.2842 27.1998 76.1112 25.0134 73.235 25.0268C70.3688 25.0401 68.2191 27.2497 68.2658 30.1359C68.3091 32.9188 70.4854 35.0352 73.2917 35.0218Z" fill="white"/>
<path d="M29.6186 25.0268C26.8591 25.0268 24.6527 27.1898 24.6161 29.936C24.5794 32.7722 26.7857 35.0185 29.6086 35.0218C32.3682 35.0218 34.5745 32.8555 34.6112 30.1126C34.6478 27.2764 32.4415 25.0301 29.6186 25.0268Z" fill="white"/>
<path d="M126.33 8.68923C130.829 8.68923 134.488 12.3477 134.488 16.8467C134.488 21.3456 130.829 24.9794 126.33 24.9794H120.571V11.0129H122.375V23.1748H126.33C129.816 23.1748 132.659 20.3321 132.659 16.8467C132.659 13.3365 129.816 10.4938 126.33 10.4938H120.571V8.68923H126.33ZM145.003 21.3703C145.003 21.3703 146.907 21.3703 146.882 21.3703C145.992 23.4962 143.891 24.9794 141.444 24.9794C139.763 24.9794 138.23 24.2872 137.143 23.1501C136.895 22.8782 136.698 22.6063 136.5 22.3344C136.302 22.0378 136.154 21.7411 136.006 21.4198C135.709 20.7029 135.536 19.8872 135.536 19.0714C135.536 15.7837 138.181 13.1387 141.444 13.1387C143.149 13.1387 144.657 13.8556 145.745 14.9927C145.992 15.2399 146.19 15.5118 146.388 15.8084C146.536 16.0309 146.684 16.2781 146.808 16.5253L138.428 22.0625L138.651 22.2602C140.084 23.5209 142.21 23.6445 143.792 22.6063C144.262 22.2849 144.682 21.8647 145.003 21.3703ZM137.415 20.3568L137.513 20.6535L144.46 16.0804L144.237 15.8579C143.496 15.2152 142.507 14.8197 141.444 14.8197C139.095 14.8197 137.217 16.7231 137.217 19.0714C137.217 19.5164 137.266 19.9613 137.415 20.3568ZM153.828 23.3232C155.336 23.3232 156.621 22.5569 157.387 21.395L158.92 22.1366C157.882 23.867 155.978 25.0041 153.828 25.0041C150.565 25.0041 147.92 22.3591 147.92 19.0961C147.92 15.8084 150.565 13.1635 153.828 13.1635C155.978 13.1635 157.882 14.3253 158.92 16.0309L157.387 16.7725C156.621 15.6107 155.336 14.8444 153.828 14.8444C151.504 14.8444 149.576 16.7478 149.576 19.0961C149.576 21.4198 151.504 23.3232 153.828 23.3232ZM165.849 13.1387C169.112 13.1387 171.782 15.8084 171.782 19.0714C171.782 22.3344 169.112 24.9794 165.849 24.9794C162.586 24.9794 159.942 22.3344 159.942 19.0714C159.942 15.7837 162.586 13.1387 165.849 13.1387ZM165.849 23.2984C168.198 23.2984 170.101 21.395 170.101 19.0714C170.101 16.7231 168.198 14.8197 165.849 14.8197C163.526 14.8197 161.598 16.7231 161.598 19.0714C161.598 21.395 163.526 23.2984 165.849 23.2984ZM178.566 13.1387C178.64 13.1387 178.714 13.1387 178.789 13.1387C178.887 13.1387 178.962 13.1387 179.036 13.1387C179.085 13.1387 179.135 13.1387 179.184 13.1387C180.692 13.2376 181.977 13.8309 183.04 14.9185V8.68923H184.845C184.845 15.6107 184.845 19.195 184.845 19.3928C184.845 20.1838 184.548 21.049 183.906 22.0625C183.658 22.458 183.362 22.8535 183.04 23.1996C181.977 24.2872 180.692 24.8805 179.184 24.9794C179.135 24.9794 179.085 24.9794 179.036 24.9794C178.962 24.9794 178.887 25.0041 178.789 25.0041C178.714 25.0041 178.64 24.9794 178.566 24.9794C176.984 24.9299 175.649 24.3119 174.537 23.1748C173.424 22.0378 172.881 20.6535 172.881 19.0714C172.881 17.4646 173.424 16.1051 174.537 14.9433C175.649 13.8062 176.984 13.2129 178.566 13.1387ZM178.64 23.2984C178.69 23.2984 178.739 23.2984 178.789 23.2984C178.863 23.2984 178.912 23.2984 178.962 23.2984C179.802 23.2737 180.544 23.0265 181.236 22.5321C181.903 22.0625 182.398 21.4445 182.719 20.7029C182.917 20.2332 183.016 19.7636 183.04 19.2692V18.8489C182.991 17.7613 182.571 16.8219 181.78 16.0556C180.989 15.2893 180.049 14.8691 178.962 14.8197C178.912 14.8197 178.863 14.8197 178.789 14.8197C178.739 14.8197 178.69 14.8197 178.64 14.8197C177.503 14.8691 176.539 15.2893 175.748 16.1298C174.957 16.9455 174.562 17.9343 174.562 19.0714C174.562 20.2085 174.957 21.1973 175.748 22.013C176.539 22.8288 177.503 23.2737 178.64 23.2984ZM184.845 22.1613V24.9794H183.04V24.3614C183.807 23.7681 184.4 23.0265 184.845 22.1613ZM195.48 21.3703C195.48 21.3703 197.384 21.3703 197.359 21.3703C196.469 23.4962 194.368 24.9794 191.921 24.9794C190.24 24.9794 188.707 24.2872 187.62 23.1501C187.372 22.8782 187.175 22.6063 186.977 22.3344C186.779 22.0378 186.631 21.7411 186.483 21.4198C186.186 20.7029 186.013 19.8872 186.013 19.0714C186.013 15.7837 188.658 13.1387 191.921 13.1387C193.626 13.1387 195.134 13.8556 196.222 14.9927C196.469 15.2399 196.667 15.5118 196.865 15.8084C197.013 16.0309 197.161 16.2781 197.285 16.5253L188.905 22.0625L189.128 22.2602C190.561 23.5209 192.687 23.6445 194.269 22.6063C194.739 22.2849 195.159 21.8647 195.48 21.3703ZM187.892 20.3568L187.99 20.6535L194.937 16.0804L194.714 15.8579C193.973 15.2152 192.984 14.8197 191.921 14.8197C189.572 14.8197 187.694 16.7231 187.694 19.0714C187.694 19.5164 187.743 19.9613 187.892 20.3568ZM127.665 38.1387V39.8444H124.328L126.133 38.1387H127.665ZM126.528 48.2737H127.665V49.9794H126.528C124.378 49.9794 122.598 48.2243 122.598 46.0737V39.8444H120.472V38.1387H122.598V33.6892H124.328V46.0737C124.328 47.2849 125.317 48.2737 126.528 48.2737ZM130.631 33.6892V38.0151C130.433 38.1387 130.26 38.2623 130.112 38.3859C129.593 38.7567 129.173 39.2264 128.827 39.7702C128.802 39.7702 128.827 33.6892 128.827 33.6892H130.631ZM137.948 42.7118V49.9794H136.144V42.7118C136.144 41.1792 134.908 39.9433 133.375 39.9433C131.867 39.9433 130.631 41.1792 130.631 42.7118V49.9794H128.827V42.7118C128.827 40.1905 130.854 38.1387 133.375 38.1387C135.896 38.1387 137.948 40.1905 137.948 42.7118ZM148.552 46.3703C148.552 46.3703 150.455 46.3703 150.431 46.3703C149.541 48.4962 147.44 49.9794 144.992 49.9794C143.311 49.9794 141.779 49.2872 140.691 48.1501C140.444 47.8782 140.246 47.6063 140.049 47.3344C139.851 47.0378 139.702 46.7411 139.554 46.4198C139.257 45.7029 139.084 44.8872 139.084 44.0714C139.084 40.7837 141.729 38.1387 144.992 38.1387C146.698 38.1387 148.206 38.8556 149.294 39.9927C149.541 40.2399 149.739 40.5118 149.936 40.8084C150.085 41.0309 150.233 41.2781 150.357 41.5253L141.977 47.0625L142.199 47.2602C143.633 48.5209 145.759 48.6445 147.341 47.6063C147.81 47.2849 148.231 46.8647 148.552 46.3703ZM140.963 45.3568L141.062 45.6535L148.008 41.0804L147.786 40.8579C147.044 40.2152 146.055 39.8197 144.992 39.8197C142.644 39.8197 140.765 41.7231 140.765 44.0714C140.765 44.5164 140.815 44.9613 140.963 45.3568ZM160.758 35.4938V40.932H168.742V42.7366H160.758V50.0041H158.954V33.6892H171.19V35.4938H160.758ZM179.644 50.0041C179.817 49.9052 179.99 49.7816 180.163 49.658C180.658 49.2625 181.103 48.7928 181.449 48.2737C181.449 48.249 181.449 50.0041 181.449 50.0041H179.644ZM172.327 45.431V38.1387H174.132V45.431C174.132 46.9389 175.368 48.1748 176.876 48.1748C178.408 48.1748 179.644 46.9389 179.644 45.431V38.1387H181.449V45.431C181.449 47.9524 179.397 49.9794 176.876 49.9794C174.354 49.9794 172.327 47.9524 172.327 45.431ZM189.754 38.1387V39.8444H186.416L188.221 38.1387H189.754ZM188.617 48.2737H189.754V49.9794H188.617C186.466 49.9794 184.686 48.2243 184.686 46.0737V39.8444H182.56V38.1387H184.686V33.6892H186.416V46.0737C186.416 47.2849 187.405 48.2737 188.617 48.2737ZM198.232 50.0041C198.405 49.9052 198.578 49.7816 198.751 49.658C199.245 49.2625 199.69 48.7928 200.037 48.2737C200.037 48.249 200.037 50.0041 200.037 50.0041H198.232ZM190.915 45.431V38.1387H192.72V45.431C192.72 46.9389 193.956 48.1748 195.463 48.1748C196.996 48.1748 198.232 46.9389 198.232 45.431V38.1387H200.037V45.431C200.037 47.9524 197.985 49.9794 195.463 49.9794C192.942 49.9794 190.915 47.9524 190.915 45.431ZM202.928 38.1387V38.7073C202.236 39.2264 201.692 39.8938 201.247 40.6354C201.222 40.6354 201.247 38.1387 201.247 38.1387H202.928ZM207.921 38.1387V39.8197H207.303C204.881 39.8197 202.928 41.7972 202.928 44.2197V49.9794H201.247V44.2939V44.2692C201.247 40.8826 203.991 38.1387 207.377 38.1387H207.921ZM218.438 46.3703C218.438 46.3703 220.341 46.3703 220.316 46.3703C219.426 48.4962 217.325 49.9794 214.878 49.9794C213.197 49.9794 211.665 49.2872 210.577 48.1501C210.33 47.8782 210.132 47.6063 209.934 47.3344C209.736 47.0378 209.588 46.7411 209.44 46.4198C209.143 45.7029 208.97 44.8872 208.97 44.0714C208.97 40.7837 211.615 38.1387 214.878 38.1387C216.584 38.1387 218.092 38.8556 219.179 39.9927C219.426 40.2399 219.624 40.5118 219.822 40.8084C219.97 41.0309 220.119 41.2781 220.242 41.5253L211.862 47.0625L212.085 47.2602C213.518 48.5209 215.644 48.6445 217.226 47.6063C217.696 47.2849 218.116 46.8647 218.438 46.3703ZM210.849 45.3568L210.948 45.6535L217.894 41.0804L217.671 40.8579C216.93 40.2152 215.941 39.8197 214.878 39.8197C212.53 39.8197 210.651 41.7231 210.651 44.0714C210.651 44.5164 210.7 44.9613 210.849 45.3568Z" fill="white"/>
</svg>
