<svg width="239" height="139" viewBox="0 0 239 139" fill="none" xmlns="http://www.w3.org/2000/svg">
<path d="M237.308 59.0263C231.46 21.4078 197.532 -3.99747 159.79 0.695219C123.967 5.14904 95.4488 36.4953 100.172 78.4212C100.534 81.6422 101.189 84.9248 102.962 88.2767C105.389 85.8032 107.053 83.3913 108.71 80.9564C117.487 68.0264 125.385 54.4801 135.086 42.2051C145.743 28.7281 160.106 23.6039 176.796 26.8248C198.588 31.0397 212.026 48.2231 211.826 70.4075C211.541 101.392 182.067 116.995 159.135 112.056C151.769 110.469 145.589 106.762 139.802 102.255C137.621 100.552 136.427 100.398 134.793 102.948C131.549 108.018 128.105 112.973 124.437 117.743C122.58 120.162 123.027 121.488 125.208 123.26C140.68 135.828 158.349 140.613 177.983 138.093C216.442 133.154 243.257 97.323 237.308 59.0263Z" fill="white"/>
<path d="M135.217 50.0263C134.223 51.2592 133.615 51.9065 133.129 52.6308C123.459 66.8399 114.066 81.2339 104.079 95.2117C93.6766 109.768 79.0592 115.477 61.6369 112.087C36.2316 107.148 22.1613 85.6569 26.8463 60.1977C31.1383 36.8806 56.1274 20.9686 79.1054 26.7863C86.495 28.6588 92.7365 32.604 98.7623 36.9885C100.642 38.3601 101.621 38.2137 102.916 36.1871C106.083 31.217 109.365 26.2932 112.925 21.6005C114.836 19.0808 114.551 17.609 112.232 15.6364C97.0208 2.74497 79.4136 -2.07101 59.9263 0.803165C20.8359 6.56693 -4.43062 40.4637 0.647349 79.739C4.63883 110.592 31.9396 136.298 63.2319 138.648C94.27 140.983 122.696 123.275 134.061 94.2486C139.663 79.947 140.318 65.3604 135.225 50.0263H135.217Z" fill="white"/>
<path d="M169.453 80.9718C175.926 80.941 180.888 76.0094 180.942 69.5445C180.996 62.8868 175.972 57.832 169.322 57.8628C162.695 57.8936 157.725 63.0024 157.833 69.6754C157.933 76.1096 162.965 81.0026 169.453 80.9718Z" fill="white"/>
<path d="M68.4797 57.8628C62.0995 57.8628 56.9984 62.8637 56.9136 69.2131C56.8289 75.7705 61.93 80.9641 68.4566 80.9718C74.8368 80.9718 79.9379 75.9632 80.0226 69.6215C80.1074 63.0641 75.0063 57.8705 68.4797 57.8628Z" fill="white"/>
</svg>
